<svg xmlns="http://www.w3.org/2000/svg" xmlns:xlink="http://www.w3.org/1999/xlink" version="1.1" x="0" y="0" width="500" height="250" viewBox="711.3 219 500 250" enable-background="new 711.3 219 500 250" xml:space="preserve">
  
   <path id="path1"            d="
        M 100, 0
        m -100, 0
            a 5,5 0 1,0 10,0
            a 5,5 0 1,0 -10,0"
        fill="none" stroke="blue" stroke-width="1"  />
 
    <g>
    <path id="kollanepind" opacity="0" fill="#FFF" d="M981.3 354.7h21.3v32V408v32h-21.3v-32H944v32h-21.3v-85.3H944v32h37.3V354.7zM1152.7 408l-6.1 0v32h-21.3v-85.3h18.7l0 0 24 0c14.7 0 26.6 12 26.6 26.6 0 11.9-7.9 22-18.7 25.4l21.3 33.2h-24L1152.7 408zM1146.6 386.6l21.3 0c2.9 0 5.3-2.4 5.3-5.3s-2.4-5.3-5.3-5.3l-21.3 0V386.6zM1026.6 354.7L1026.6 354.7l0 85.3h0 21.3 53.3v-21.3H1048V408h34.7v-21.3H1048V376h53.3v-21.3L1026.6 354.7 1026.6 354.7zM869.3 354.7l32 85.3H880l-8-21.3h-26.7l-8 21.3H816l32-85.3H869.3zM864 397.3l-5.3-14.2 -5.3 14.2H864zM768.1 411.5l-21.3-56.9h-21.3l32 85.3h21.3v0l0 0 32-85.3h-21.3L768.1 411.5zM1083.2 248h-21.3v85.3h21.3V248zM911.2 248l32 85.3h-21.3l-8-21.3h-26.7l-8 21.3h-21.3l32-85.3H911.2zM905.9 290.7l-5.3-14.2 -5.3 14.2H905.9zM793.9 277.3L772.6 248v0h0 -21.3v10.7 74.6h21.3v-50.1l21.3 24.6 21.3-24.6v50.1h21.3v-74.6V248h-21.3L793.9 277.3zM964.5 333.3L964.5 333.3l0-85.3h0 21.3 10.7c23.6 0 42.6 19.1 42.6 42.6 0 23.6-19.1 42.6-42.6 42.6h-10.7H964.5zM985.8 269.4V312h10.7c11.8 0 21.3-9.5 21.3-21.3 0-11.8-9.5-21.3-21.3-21.3H985.8zM1139.4 280c-4.3 0-9.8 0-9.8-4.5 0-6.2 8.7-6.2 9.8-6.2 11.7 0 18.7 2.8 18.8 2.8l2.7-10.3 2.7-9.8c-1.1-0.3-9.8-4.1-24.2-4.1 -12.5 0-31.1 7.3-31.1 27.5 0 17.8 15.6 25.8 31.1 25.8 8.7 0 10.7 1.9 10.7 3.6 0 1.6-0.1 7.1-10.7 7.1 -9.1 0-24.2-4.2-24.2-4.2l-5.7 20.5c1.8 0.5 18.2 5 30 5 15.9 0 31.9-8.8 31.9-28.3C1171.3 280.7 1143.8 280 1139.4 280z"/>
  </g>
    <g>
    <path id="mustjoon" fill="none" stroke="#333" stroke-width="3" stroke-linecap="round" stroke-linejoin="round" stroke-dasharray="500" stroke-dashoffset="500" d="M981.3 354.7h21.3v32V408v32h-21.3v-32H944v32h-21.3v-85.3H944v32h37.3V354.7zM1152.7 408l-6.1 0v32h-21.3v-85.3h18.7l0 0 24 0c14.7 0 26.6 12 26.6 26.6 0 11.9-7.9 22-18.7 25.4l21.3 33.2h-24L1152.7 408zM1146.6 386.6l21.3 0c2.9 0 5.3-2.4 5.3-5.3s-2.4-5.3-5.3-5.3l-21.3 0V386.6zM1026.6 354.7L1026.6 354.7l0 85.3h0 21.3 53.3v-21.3H1048V408h34.7v-21.3H1048V376h53.3v-21.3L1026.6 354.7 1026.6 354.7zM869.3 354.7l32 85.3H880l-8-21.3h-26.7l-8 21.3H816l32-85.3H869.3zM864 397.3l-5.3-14.2 -5.3 14.2H864zM768.1 411.5l-21.3-56.9h-21.3l32 85.3h21.3v0l0 0 32-85.3h-21.3L768.1 411.5zM1083.2 248h-21.3v85.3h21.3V248zM911.2 248l32 85.3h-21.3l-8-21.3h-26.7l-8 21.3h-21.3l32-85.3H911.2zM905.9 290.7l-5.3-14.2 -5.3 14.2H905.9zM793.9 277.3L772.6 248v0h0 -21.3v10.7 74.6h21.3v-50.1l21.3 24.6 21.3-24.6v50.1h21.3v-74.6V248h-21.3L793.9 277.3zM964.5 333.3L964.5 333.3l0-85.3h0 21.3 10.7c23.6 0 42.6 19.1 42.6 42.6 0 23.6-19.1 42.6-42.6 42.6h-10.7H964.5zM985.8 269.4V312h10.7c11.8 0 21.3-9.5 21.3-21.3 0-11.8-9.5-21.3-21.3-21.3H985.8zM1139.4 280c-4.3 0-9.8 0-9.8-4.5 0-6.2 8.7-6.2 9.8-6.2 11.7 0 18.7 2.8 18.8 2.8l2.7-10.3 2.7-9.8c-1.1-0.3-9.8-4.1-24.2-4.1 -12.5 0-31.1 7.3-31.1 27.5 0 17.8 15.6 25.8 31.1 25.8 8.7 0 10.7 1.9 10.7 3.6 0 1.6-0.1 7.1-10.7 7.1 -9.1 0-24.2-4.2-24.2-4.2l-5.7 20.5c1.8 0.5 18.2 5 30 5 15.9 0 31.9-8.8 31.9-28.3C1171.3 280.7 1143.8 280 1139.4 280z"/>
  </g>
    <g>
    <path id="mustpind" fill="#333"  opacity="0" d="M981.3 354.7h21.3v32V408v32h-21.3v-32H944v32h-21.3v-85.3H944v32h37.3V354.7zM1152.7 408l-6.1 0v32h-21.3v-85.3h18.7l0 0 24 0c14.7 0 26.6 12 26.6 26.6 0 11.9-7.9 22-18.7 25.4l21.3 33.2h-24L1152.7 408zM1146.6 386.6l21.3 0c2.9 0 5.3-2.4 5.3-5.3s-2.4-5.3-5.3-5.3l-21.3 0V386.6zM1026.6 354.7L1026.6 354.7l0 85.3h0 21.3 53.3v-21.3H1048V408h34.7v-21.3H1048V376h53.3v-21.3L1026.6 354.7 1026.6 354.7zM869.3 354.7l32 85.3H880l-8-21.3h-26.7l-8 21.3H816l32-85.3H869.3zM864 397.3l-5.3-14.2 -5.3 14.2H864zM768.1 411.5l-21.3-56.9h-21.3l32 85.3h21.3v0l0 0 32-85.3h-21.3L768.1 411.5zM1083.2 248h-21.3v85.3h21.3V248zM911.2 248l32 85.3h-21.3l-8-21.3h-26.7l-8 21.3h-21.3l32-85.3H911.2zM905.9 290.7l-5.3-14.2 -5.3 14.2H905.9zM793.9 277.3L772.6 248v0h0 -21.3v10.7 74.6h21.3v-50.1l21.3 24.6 21.3-24.6v50.1h21.3v-74.6V248h-21.3L793.9 277.3zM964.5 333.3L964.5 333.3l0-85.3h0 21.3 10.7c23.6 0 42.6 19.1 42.6 42.6 0 23.6-19.1 42.6-42.6 42.6h-10.7H964.5zM985.8 269.4V312h10.7c11.8 0 21.3-9.5 21.3-21.3 0-11.8-9.5-21.3-21.3-21.3H985.8zM1139.4 280c-4.3 0-9.8 0-9.8-4.5 0-6.2 8.7-6.2 9.8-6.2 11.7 0 18.7 2.8 18.8 2.8l2.7-10.3 2.7-9.8c-1.1-0.3-9.8-4.1-24.2-4.1 -12.5 0-31.1 7.3-31.1 27.5 0 17.8 15.6 25.8 31.1 25.8 8.7 0 10.7 1.9 10.7 3.6 0 1.6-0.1 7.1-10.7 7.1 -9.1 0-24.2-4.2-24.2-4.2l-5.7 20.5c1.8 0.5 18.2 5 30 5 15.9 0 31.9-8.8 31.9-28.3C1171.3 280.7 1143.8 280 1139.4 280z"/>
  </g>
    <g>
    <path id="kollanejoon" opacity="0" fill="none" stroke="#FFF" stroke-width="0" stroke-linecap="round" stroke-linejoin="round" d="M981.3 354.7h21.3v32V408v32h-21.3v-32H944v32h-21.3v-85.3H944v32h37.3V354.7zM1152.7 408l-6.1 0v32h-21.3v-85.3h18.7l0 0 24 0c14.7 0 26.6 12 26.6 26.6 0 11.9-7.9 22-18.7 25.4l21.3 33.2h-24L1152.7 408zM1146.6 386.6l21.3 0c2.9 0 5.3-2.4 5.3-5.3s-2.4-5.3-5.3-5.3l-21.3 0V386.6zM1026.6 354.7L1026.6 354.7l0 85.3h0 21.3 53.3v-21.3H1048V408h34.7v-21.3H1048V376h53.3v-21.3L1026.6 354.7 1026.6 354.7zM869.3 354.7l32 85.3H880l-8-21.3h-26.7l-8 21.3H816l32-85.3H869.3zM864 397.3l-5.3-14.2 -5.3 14.2H864zM768.1 411.5l-21.3-56.9h-21.3l32 85.3h21.3v0l0 0 32-85.3h-21.3L768.1 411.5zM1083.2 248h-21.3v85.3h21.3V248zM911.2 248l32 85.3h-21.3l-8-21.3h-26.7l-8 21.3h-21.3l32-85.3H911.2zM905.9 290.7l-5.3-14.2 -5.3 14.2H905.9zM793.9 277.3L772.6 248v0h0 -21.3v10.7 74.6h21.3v-50.1l21.3 24.6 21.3-24.6v50.1h21.3v-74.6V248h-21.3L793.9 277.3zM964.5 333.3L964.5 333.3l0-85.3h0 21.3 10.7c23.6 0 42.6 19.1 42.6 42.6 0 23.6-19.1 42.6-42.6 42.6h-10.7H964.5zM985.8 269.4V312h10.7c11.8 0 21.3-9.5 21.3-21.3 0-11.8-9.5-21.3-21.3-21.3H985.8zM1139.4 280c-4.3 0-9.8 0-9.8-4.5 0-6.2 8.7-6.2 9.8-6.2 11.7 0 18.7 2.8 18.8 2.8l2.7-10.3 2.7-9.8c-1.1-0.3-9.8-4.1-24.2-4.1 -12.5 0-31.1 7.3-31.1 27.5 0 17.8 15.6 25.8 31.1 25.8 8.7 0 10.7 1.9 10.7 3.6 0 1.6-0.1 7.1-10.7 7.1 -9.1 0-24.2-4.2-24.2-4.2l-5.7 20.5c1.8 0.5 18.2 5 30 5 15.9 0 31.9-8.8 31.9-28.3C1171.3 280.7 1143.8 280 1139.4 280z"/>
  </g>
   
 </svg>